<?xml version="1.0" encoding="iso-8859-1"?>
<!-- Generator: Adobe Illustrator 19.0.0, SVG Export Plug-In . SVG Version: 6.00 Build 0)  -->
<svg version="1.1" id="Capa_1" xmlns="http://www.w3.org/2000/svg" xmlns:xlink="http://www.w3.org/1999/xlink" x="0px" y="0px"
	 viewBox="0 0 522.483 522.483" style="enable-background:new 0 0 522.483 522.483;" xml:space="preserve">
<g>
	<g>
		<path d="M0.371,510.771c-0.239,3.048,0.805,5.987,2.852,8.229c2.09,2.199,4.963,3.483,7.989,3.483h284.611
			c3.026,0,5.899-1.284,7.989-3.483c2.046-2.242,3.113-5.181,2.852-8.229C301.635,443.7,265.476,405.212,196.25,393.37v-23.271
			h10.885c5.987,0,10.885-4.898,10.885-10.885v-43.538c0-6.008-4.898-10.885-10.885-10.885H98.289
			c-5.987,0-10.885,4.876-10.885,10.885v43.538c0,5.987,4.898,10.885,10.885,10.885h10.885v23.271
			C41.057,405.103,5.421,443.591,0.371,510.771z M506.853,9.339c-4.245-4.245-11.146-4.245-15.369,0l-55.773,55.686V10.906
			c0-3.766-1.959-7.271-5.138-9.252c-3.178-2.003-7.184-2.199-10.558-0.522c-22.945,11.342-59.452,35.527-93.303,69.379
			c-65.569,65.547-94.348,137.886-71.73,175.221l-27.756,27.734c-4.245,4.245-4.245,11.146,0,15.391
			c4.158,4.201,11.081,4.289,15.391,0l27.56-27.538c10.928,7.249,24.403,10.863,39.489,10.863
			c36.268,0,81.635-20.158,122.517-57.318c3.287-3.026,4.441-7.772,2.83-11.973c-1.611-4.201-5.682-6.944-10.188-6.944H335.53
			l21.769-21.769h100.182c5.987,0,10.885-4.898,10.885-10.885c0-6.008-4.898-10.885-10.885-10.885h-78.369l21.769-21.769h88.274
			c3.875,0,7.51-2.112,9.448-5.486c27.886-48.654,31.13-91.322,9.034-114.637C507.637,10.514,506.854,9.339,506.853,9.339z"/>
	</g>
</g>
<g>
</g>
<g>
</g>
<g>
</g>
<g>
</g>
<g>
</g>
<g>
</g>
<g>
</g>
<g>
</g>
<g>
</g>
<g>
</g>
<g>
</g>
<g>
</g>
<g>
</g>
<g>
</g>
<g>
</g>
</svg>
