<?xml version="1.0" encoding="iso-8859-1"?>
<!-- Generator: Adobe Illustrator 19.0.0, SVG Export Plug-In . SVG Version: 6.00 Build 0)  -->
<svg version="1.1" id="Layer_1" xmlns="http://www.w3.org/2000/svg" xmlns:xlink="http://www.w3.org/1999/xlink" x="0px" y="0px"
	 viewBox="0 0 463 463" style="enable-background:new 0 0 463 463;" xml:space="preserve">
<g transform="translate(0 -540.36)">
	<g>
		<g>
			<path d="M436.9,677.719L436.9,677.719c-12.6-7.8-29.8-14.6-51.2-20.3c7.9-18.9,16.2-39.4,24.4-60.2c7.8-17.5-4.1-42.5-19.2-51.6
				l-0.5-0.3c-17.9-9-48.5-5.9-59.5,11.4c-17.6,28-36.1,57.3-53.3,84.5c-15.2-1-30.9-1-46.1-1c-59.3,0-114.7,6.1-155.9,17
				c-22.7,6-40.5,13.5-53.1,22c-14.9,10.2-22.5,22.2-22.5,35.6c0,76.5,23.8,148.5,67,203c43.8,55.1,102.2,85.5,164.5,85.5
				c31.3,0,61.8-7.8,90.5-23.1c27.5-14.7,52.3-35.7,73.6-62.4c43.5-54.6,67.4-126.7,67.4-203
				C463,700.919,454.2,688.419,436.9,677.719z M343.6,564.819L343.6,564.819c6.3-9.9,28-11.9,39.8-6.2c9.3,5.8,17.4,22.8,13,32.6
				l-0.2,0.4c-26.4,67-54,129.8-62.9,149.7c-29,3.6-63.5,5.9-101.9,5.9c-1,0-2,0-3,0C248.3,715.819,298.8,635.819,343.6,564.819z
				 M383.8,908.519c-41,51.5-95.1,79.9-152.3,79.9c-119.4,0-216.5-122.7-216.5-273.5c0-16.7,22.9-32,64.4-43.1
				c40-10.7,94-16.5,152.1-16.5c12.2,0,24.8,0,36.9,0.5c-26.8,42.4-49,77.7-57.6,91.2c-84-1.7-153.9-13.7-173.7-30.4
				c-3.2-2.7-7.9-2.3-10.6,0.9s-2.3,7.9,0.9,10.6c29.9,25.2,128.6,34.1,203.9,34.1c94.8,0,176.6-13.6,203.6-33.8
				c3.3-2.5,4-7.2,1.5-10.5s-7.2-4-10.5-1.5c-11,8.3-37.4,16.6-75.3,22.5c6.4-14.6,16.9-38.6,29-67.4c43.4,11.3,68.1,27,68.1,43.5
				C448,787.819,425.2,856.619,383.8,908.519z"/>
			<path d="M406.8,783.619c-3.9-1.2-8.1,1-9.4,4.9c-9.7,30.1-25.6,59.4-46,84.6c-2.6,3.2-2.1,7.9,1.1,10.5c1.4,1.2,3,1.7,4.7,1.7
				c2.2,0,4.3-1,5.9-2.8c21.6-26.7,38.4-57.6,48.6-89.5C412.9,789.119,410.7,784.919,406.8,783.619z"/>
			<path d="M338.5,896.419c-3.8,0-7.5,3.8-7.5,7.5c0,5,3.8,8.7,7.5,8.7c5,0,8.7-3.7,8.7-8.7
				C347.2,900.219,343.5,896.419,338.5,896.419z"/>
		</g>
	</g>
</g>
<g>
</g>
<g>
</g>
<g>
</g>
<g>
</g>
<g>
</g>
<g>
</g>
<g>
</g>
<g>
</g>
<g>
</g>
<g>
</g>
<g>
</g>
<g>
</g>
<g>
</g>
<g>
</g>
<g>
</g>
</svg>
