<?xml version="1.0" encoding="iso-8859-1"?>
<!-- Generator: Adobe Illustrator 19.0.0, SVG Export Plug-In . SVG Version: 6.00 Build 0)  -->
<svg version="1.1" id="Capa_1" xmlns="http://www.w3.org/2000/svg" xmlns:xlink="http://www.w3.org/1999/xlink" x="0px" y="0px"
	 viewBox="0 0 465 465" style="enable-background:new 0 0 465 465;" xml:space="preserve">
<g>
	<path style="fill:#FF9926;" d="M396.137,67.447c-10.325,0-18.725,8.399-18.725,18.724v8.234h63.672V59.948h-37.447
		C403.637,64.09,400.279,67.447,396.137,67.447z"/>
	<path style="fill:#FECC33;" d="M396.137,15H147.535c-24.784,0-44.947,20.163-44.947,44.947v37.178l16.675,13.175
		c1.801,1.422,2.851,3.591,2.851,5.885s-1.05,4.463-2.851,5.885l-16.675,13.175v24.818l16.675,13.174
		c1.801,1.422,2.851,3.59,2.851,5.885c0,2.294-1.05,4.463-2.851,5.885l-16.675,13.175v157.414h187.227c4.143,0,7.5,3.357,7.5,7.5
		v15.734c0,10.324,8.399,18.724,18.724,18.724c4.143,0,7.5,3.357,7.5,7.5h0.625c14.483,0,26.224-11.741,26.224-26.224v-15.735
		v-59.274l-4.447-3.274c-1.884-1.387-3.012-3.573-3.052-5.912c-0.039-2.339,1.015-4.563,2.85-6.012l16.675-13.173V86.171
		c0-18.596,15.129-33.724,33.725-33.724c4.143,0,7.5,3.357,7.5,7.5v0h37.447v0C441.084,35.163,420.921,15,396.137,15z"/>
	<path style="fill:#FF9926;" d="M350.386,378.829c0,14.483-11.741,26.224-26.224,26.224h-0.625v0c0,4.143-3.357,7.5-7.5,7.5
		c-18.596,0-33.724-15.128-33.724-33.724v-8.234H23.916v34.458c0,24.784,20.163,44.947,44.947,44.947h248.602
		c24.784,0,44.947-20.163,44.947-44.947v-92.378l-12.026-8.855v59.274V378.829z"/>
	<path d="M396.137,0H147.535C114.48,0,87.588,26.893,87.588,59.947v40.811c0,2.294,1.05,4.463,2.851,5.885l12.077,9.542
		l-12.077,9.542c-1.801,1.422-2.851,3.591-2.851,5.885v32.084c0,2.295,1.05,4.463,2.851,5.885l12.076,9.541l-12.076,9.542
		c-1.801,1.422-2.851,3.591-2.851,5.885v161.047H16.416c-4.143,0-7.5,3.357-7.5,7.5v41.958C8.916,438.107,35.809,465,68.863,465
		h248.602c33.055,0,59.947-26.893,59.947-59.947v-96.169c0-2.384-1.133-4.626-3.053-6.039l-11.608-8.549l11.811-9.33
		c1.8-1.422,2.851-3.59,2.851-5.885V109.405h71.172c4.143,0,7.5-3.357,7.5-7.5V59.947C456.084,26.893,429.191,0,396.137,0z
		 M441.084,59.948v34.458h-63.672v-8.234c0-10.324,8.399-18.724,18.725-18.724c4.143,0,7.5-3.357,7.5-7.5v0
		c0-4.143-3.357-7.5-7.5-7.5c-18.596,0-33.725,15.128-33.725,33.724v189.277l-16.675,13.173c-1.835,1.449-2.889,3.673-2.85,6.012
		c0.04,2.339,1.168,4.525,3.052,5.912l4.447,3.274l12.026,8.855v92.378c0,24.784-20.163,44.947-44.947,44.947H68.863
		c-24.784,0-44.947-20.163-44.947-44.947v-34.458h258.398v8.234c0,18.596,15.128,33.724,33.724,33.724c4.143,0,7.5-3.357,7.5-7.5v0
		c0-4.143-3.357-7.5-7.5-7.5c-10.324,0-18.724-8.399-18.724-18.724v-15.734c0-4.143-3.357-7.5-7.5-7.5H102.588V198.181
		l16.675-13.175c1.801-1.422,2.851-3.591,2.851-5.885c0-2.295-1.05-4.463-2.851-5.885l-16.675-13.174v-24.818l16.675-13.175
		c1.801-1.422,2.851-3.591,2.851-5.885s-1.05-4.463-2.851-5.885l-16.675-13.175V59.947c0-24.784,20.163-44.947,44.947-44.947
		h248.602C420.921,15,441.084,35.163,441.084,59.948L441.084,59.948z"/>
</g>
<g>
</g>
<g>
</g>
<g>
</g>
<g>
</g>
<g>
</g>
<g>
</g>
<g>
</g>
<g>
</g>
<g>
</g>
<g>
</g>
<g>
</g>
<g>
</g>
<g>
</g>
<g>
</g>
<g>
</g>
</svg>
