<svg xmlns="http://www.w3.org/2000/svg" style="display: none;">
  <symbol id="coin" viewBox="0 0 56 56">
    <g id="XMLID_100_">
      <path id="XMLID_99_" style="fill:#FFD949;" d="M31,56C17.469,56,6.5,43.464,6.5,28S17.469,0,31,0c13.531,0,24.5,12.536,24.5,28
        S44.531,56,31,56"/>
      <path id="XMLID_132_" style="fill:#F4BF1A;" d="M6.5,28C6.5,13.698,15.885,1.908,28,0.216C27.016,0.079,26.016,0,25,0
        C11.469,0,0.5,12.536,0.5,28S11.469,56,25,56c1.016,0,2.016-0.079,3-0.216C15.885,54.092,6.5,42.302,6.5,28"/>
      <path id="XMLID_115_" style="fill:#F4BF1A;" d="M31.085,50.524h-0.086c-0.7,0-1.405-0.042-2.095-0.124
        c-0.549-0.066-0.94-0.563-0.875-1.112c0.066-0.549,0.567-0.932,1.112-0.874c0.612,0.073,1.237,0.11,1.858,0.11
        c0.553,0,1.043,0.448,1.043,1C32.042,50.076,31.639,50.524,31.085,50.524 M36.9,49.447c-0.404,0-0.785-0.247-0.936-0.648
        c-0.195-0.517,0.066-1.094,0.583-1.288c0.576-0.217,1.151-0.472,1.706-0.757c0.492-0.254,1.094-0.059,1.347,0.433
        c0.252,0.491,0.058,1.094-0.434,1.346c-0.623,0.32-1.266,0.604-1.914,0.849C37.137,49.426,37.018,49.447,36.9,49.447
         M23.365,48.683c-0.152,0-0.307-0.035-0.452-0.109c-0.615-0.313-1.224-0.664-1.809-1.048c-0.462-0.302-0.591-0.921-0.289-1.384
        c0.304-0.461,0.922-0.591,1.385-0.289c0.523,0.343,1.068,0.659,1.618,0.938c0.492,0.25,0.689,0.852,0.439,1.344
        C24.081,48.483,23.729,48.683,23.365,48.683 M43.475,45.125c-0.254,0-0.509-0.097-0.704-0.29c-0.392-0.389-0.395-1.022-0.006-1.414
        c0.435-0.438,0.858-0.91,1.257-1.402c0.349-0.428,0.979-0.493,1.407-0.145c0.428,0.348,0.494,0.978,0.145,1.407
        c-0.441,0.542-0.908,1.063-1.389,1.548C43.989,45.026,43.731,45.125,43.475,45.125 M17.257,43.717
        c-0.289,0-0.576-0.125-0.774-0.365c-0.434-0.53-0.851-1.09-1.238-1.665c-0.309-0.458-0.188-1.08,0.27-1.389
        c0.457-0.309,1.079-0.189,1.388,0.27c0.353,0.524,0.732,1.034,1.127,1.515c0.35,0.427,0.288,1.057-0.139,1.408
        C17.706,43.643,17.48,43.717,17.257,43.717 M47.871,38.58c-0.134,0-0.269-0.027-0.399-0.083c-0.507-0.221-0.738-0.81-0.518-1.317
        c0.251-0.574,0.48-1.17,0.681-1.769c0.176-0.522,0.743-0.805,1.267-0.629c0.523,0.177,0.805,0.743,0.629,1.267
        c-0.22,0.653-0.47,1.303-0.743,1.93C48.623,38.355,48.255,38.58,47.871,38.58 M13.445,36.813c-0.416,0-0.805-0.263-0.947-0.678
        c-0.221-0.648-0.417-1.315-0.583-1.983c-0.134-0.536,0.192-1.078,0.728-1.211c0.534-0.136,1.079,0.192,1.212,0.728
        c0.153,0.613,0.333,1.226,0.536,1.82c0.178,0.523-0.101,1.091-0.623,1.269C13.662,36.795,13.552,36.813,13.445,36.813
         M49.76,30.916c-0.026,0-0.052-0.001-0.078-0.003c-0.551-0.043-0.962-0.524-0.92-1.075c0.047-0.606,0.071-1.225,0.071-1.838
        c0-0.552,0.448-1.032,1-1.032c0.552,0,1,0.415,1,0.967V28c0,0.665-0.026,1.335-0.077,1.993
        C50.716,30.517,50.277,30.916,49.76,30.916 M12.166,29.011c-0.552,0-1-0.437-1-0.989V28c0-0.682,0.027-1.368,0.08-2.037
        c0.044-0.55,0.523-0.958,1.076-0.918c0.551,0.044,0.962,0.526,0.918,1.076c-0.049,0.618-0.074,1.25-0.074,1.879
        C13.166,28.552,12.718,29.011,12.166,29.011 M49.102,23.048c-0.447,0-0.854-0.302-0.968-0.755c-0.155-0.615-0.336-1.227-0.54-1.821
        c-0.179-0.522,0.1-1.091,0.622-1.27c0.523-0.181,1.092,0.099,1.27,0.622c0.222,0.646,0.419,1.312,0.587,1.979
        c0.135,0.536-0.19,1.079-0.725,1.214C49.267,23.039,49.185,23.048,49.102,23.048 M13.432,21.231c-0.107,0-0.215-0.018-0.322-0.054
        c-0.523-0.177-0.803-0.745-0.626-1.268c0.221-0.65,0.472-1.299,0.747-1.928c0.222-0.507,0.81-0.736,1.317-0.516
        c0.506,0.221,0.737,0.811,0.516,1.317c-0.253,0.577-0.483,1.173-0.685,1.769C14.236,20.968,13.849,21.231,13.432,21.231
         M45.902,15.838c-0.321,0-0.635-0.154-0.829-0.44c-0.354-0.522-0.734-1.031-1.13-1.512c-0.351-0.426-0.29-1.057,0.136-1.408
        c0.426-0.351,1.057-0.29,1.408,0.136c0.435,0.529,0.853,1.088,1.242,1.663c0.31,0.457,0.19,1.079-0.267,1.389
        C46.29,15.782,46.096,15.838,45.902,15.838 M17.228,14.317c-0.222,0-0.446-0.074-0.632-0.226c-0.428-0.349-0.491-0.979-0.141-1.407
        c0.441-0.54,0.909-1.06,1.391-1.545c0.39-0.39,1.023-0.393,1.414-0.004c0.392,0.39,0.394,1.022,0.005,1.414
        c-0.436,0.439-0.861,0.91-1.262,1.401C17.807,14.192,17.519,14.317,17.228,14.317 M40.31,10.287c-0.187,0-0.376-0.052-0.544-0.162
        c-0.523-0.341-1.069-0.655-1.622-0.934c-0.492-0.249-0.69-0.85-0.441-1.343c0.249-0.491,0.849-0.692,1.343-0.442
        c0.618,0.311,1.227,0.662,1.811,1.043c0.463,0.302,0.594,0.922,0.292,1.384C40.957,10.128,40.638,10.287,40.31,10.287
         M23.329,9.337c-0.364,0-0.715-0.199-0.892-0.546c-0.251-0.492-0.055-1.094,0.437-1.345c0.623-0.317,1.267-0.602,1.916-0.844
        c0.516-0.194,1.093,0.068,1.287,0.586c0.193,0.517-0.069,1.093-0.587,1.287c-0.578,0.216-1.153,0.469-1.709,0.753
        C23.637,9.302,23.481,9.337,23.329,9.337 M32.935,7.588c-0.039,0-0.078-0.002-0.117-0.007c-0.602-0.07-1.214-0.105-1.819-0.105
        c-0.552,0-1.021-0.448-1.021-1c0-0.552,0.427-1,0.979-1h0.042c0.682,0,1.372,0.04,2.05,0.119c0.548,0.063,0.942,0.559,0.878,1.108
        C33.869,7.213,33.435,7.588,32.935,7.588"/>
      <path id="XMLID_114_" style="fill:#DCA815;" d="M6.498,29H0.5c0.02,0.673,0.058,1.34,0.119,2h6.003
        C6.56,30.34,6.519,29.673,6.498,29"/>
      <path id="XMLID_113_" style="fill:#DCA815;" d="M6.727,24H0.731c-0.083,0.659-0.143,1.327-0.184,2h5.999
        C6.588,25.327,6.644,24.659,6.727,24"/>
      <path id="XMLID_112_" style="fill:#DCA815;" d="M7.048,34H1.047c0.13,0.676,0.28,1.343,0.451,2h5.999
        C7.327,35.343,7.178,34.676,7.048,34"/>
      <path id="XMLID_111_" style="fill:#DCA815;" d="M8.447,39H2.443c0.255,0.682,0.537,1.347,0.837,2h6.001
        C8.981,40.348,8.702,39.681,8.447,39"/>
      <path id="XMLID_110_" style="fill:#DCA815;" d="M7.772,19H1.779c-0.195,0.657-0.377,1.322-0.529,2h6.007
        C7.409,20.324,7.578,19.655,7.772,19"/>
      <path id="XMLID_109_" style="fill:#DCA815;" d="M9.764,14h-6c-0.33,0.651-0.641,1.317-0.925,2h6.004
        C9.127,15.318,9.434,14.651,9.764,14"/>
      <path id="XMLID_108_" style="fill:#DCA815;" d="M13.845,8H7.838c-0.569,0.636-1.11,1.303-1.622,2h6.005
        C12.734,9.303,13.276,8.636,13.845,8"/>
      <path id="XMLID_107_" style="fill:#DCA815;" d="M19.96,3h-6.013c-1.022,0.59-2.002,1.258-2.936,2h6.009
        C17.955,4.258,18.937,3.59,19.96,3"/>
      <path id="XMLID_106_" style="fill:#DCA815;" d="M11.519,45H5.516c0.464,0.693,0.954,1.36,1.472,2h6.007
        C12.477,46.36,11.984,45.693,11.519,45"/>
      <path id="XMLID_105_" style="fill:#DCA815;" d="M9.832,50c0.803,0.723,1.644,1.394,2.524,2h6.014c-0.884-0.607-1.734-1.274-2.54-2
        H9.832z"/>
    </g>
  </symbol>
  <symbol id="astrolabe" viewBox="0 0 470.005 470.005">
    <title>Astronomie</title> 
    <desc>Astronomie</desc>
    <path d="m469.432,96.718l-38.144-92.086c-1.585-3.827-5.973-5.646-9.799-4.059l-126.339,52.332c-3.827,1.585-5.645,5.973-4.059,9.799l.995,2.402-206.151,85.39c-1.838,0.761-3.298,2.221-4.059,4.059-0.762,1.838-0.762,3.902 0,5.74l.995,2.403-78.238,32.409c-3.827,1.585-5.645,5.973-4.059,9.799l22.682,54.759c0.761,1.838 2.221,3.298 4.059,4.059 0.919,0.38 1.895,0.571 2.87,0.571s1.951-0.19 2.87-0.571l78.239-32.407 .995,2.403c1.196,2.888 3.988,4.632 6.932,4.632 0.956,0 1.929-0.184 2.867-0.573l185.363-76.78c3.827-1.585 5.645-5.973 4.059-9.799-1.585-3.827-5.971-5.646-9.799-4.059l-178.435,73.91-24.673-59.564 199.223-82.52 31.407,75.825c0.761,1.838 2.221,3.298 4.059,4.059 0.919,0.38 1.895,0.571 2.87,0.571s1.951-0.19 2.87-0.571l27.713-11.479c0.007-0.003 98.627-40.853 98.627-40.853 1.838-0.761 3.298-2.221 4.059-4.059 0.763-1.84 0.763-3.904 0.001-5.742zm-363.878,120.74l-71.31,29.537-16.941-40.901 71.31-29.537 16.941,40.901zm234.667-75.337l-31.407-75.824c-0.001-0.001-0.995-2.403-0.995-2.403l13.859-5.741 32.402,78.227-13.859,5.741zm27.717-11.481l-32.402-78.227 84.766-35.111 32.403,78.227-84.767,35.111z"/>
    <path d="m282.462,320.182h0.13c4.143,0 7.5-3.358 7.5-7.5s-3.357-7.5-7.5-7.5h-4.301l-6.815-24.509c-0.902-3.245-3.857-5.491-7.226-5.491h-21.747v-54.809l24.616-10.197c3.827-1.585 5.645-5.973 4.059-9.799-1.586-3.826-5.972-5.644-9.799-4.059l-29.257,12.119c-0.022,0.009-0.045,0.018-0.067,0.028l-29.17,12.083c-3.827,1.585-5.645,5.973-4.059,9.799 1.196,2.888 3.988,4.632 6.932,4.632 0.956,0 1.929-0.184 2.867-0.573l18.877-7.819v48.596h-21.747c-3.368,0-6.323,2.246-7.226,5.491l-6.815,24.509h-4.301c-4.143,0-7.5,3.358-7.5,7.5s3.357,7.5 7.5,7.5h0.13l-39.014,140.312c-1.11,3.991 1.226,8.125 5.217,9.235 3.989,1.107 8.125-1.227 9.234-5.217l40.132-144.33h24.39v142.321c0,4.142 3.357,7.5 7.5,7.5s7.5-3.358 7.5-7.5v-142.322h24.39l40.132,144.33c0.923,3.319 3.938,5.493 7.222,5.493 0.665,0 1.341-0.089 2.013-0.276 3.991-1.11 6.327-5.245 5.217-9.235l-39.014-140.312zm-75.177-15l4.171-15h47.096l4.171,15h-55.438z"/>
  </symbol>
  <symbol id="clay" viewBox="0 0 512 512">
    <rect x="256.768" y="176.939" style="fill:#FF9F99;" width="161.126" height="106.914"/>
    <rect x="175.437" y="68.523" style="fill:#FFB7B2;" width="161.135" height="106.914"/>
    <rect x="94.123" y="176.939" style="fill:#FF9F99;" width="161.126" height="106.914"/>
    <g>
      <rect x="338.074" y="285.363" style="fill:#FF877F;" width="161.126" height="106.914"/>
      <rect x="175.437" y="285.363" style="fill:#FF877F;" width="161.135" height="106.914"/>
      <rect x="12.8" y="285.363" style="fill:#FF877F;" width="161.126" height="106.914"/>
    </g>
    <g>
      <path style="fill:#573A32;" d="M486.4,272.563h-56.021c0.034-0.529,0.307-0.973,0.307-1.51v-81.314c0-14.14-11.46-25.6-25.6-25.6
        h-56.021c0.034-0.529,0.307-0.973,0.307-1.51V81.314c0-14.14-11.46-25.6-25.6-25.6H188.237c-14.14,0-25.6,11.46-25.6,25.6v81.314
        c0,0.538,0.273,0.981,0.307,1.51h-56.021c-14.14,0-25.6,11.46-25.6,25.6v81.314c0,0.538,0.273,0.981,0.307,1.51H25.6
        c-14.14,0-25.6,11.46-25.6,25.6v81.314c0,14.14,11.46,25.6,25.6,25.6h460.8c14.14,0,25.6-11.46,25.6-25.6v-81.314
        C512,284.023,500.54,272.563,486.4,272.563z M405.077,189.739v81.314H269.551v-81.314H405.077z M188.237,81.314h135.535v81.314
        H188.237V81.314z M106.923,189.739h135.526v81.314H106.923V189.739z M161.126,379.486H25.6v-81.314h135.526V379.486z
         M323.763,379.486H188.237v-81.314h135.535v81.314H323.763z M486.4,379.486H350.874v-81.314H486.4V379.486z"/>
      <path style="fill:#573A32;" d="M499.2,430.686H12.8c-7.074,0-12.8,5.726-12.8,12.8s5.726,12.8,12.8,12.8h486.4
        c7.074,0,12.8-5.726,12.8-12.8S506.274,430.686,499.2,430.686z"/>
    </g> 
  </symbol>
  <symbol id="feather" viewBox="0 0 522.483 522.483">
    <g>
      <path d="M0.371,510.771c-0.239,3.048,0.805,5.987,2.852,8.229c2.09,2.199,4.963,3.483,7.989,3.483h284.611
        c3.026,0,5.899-1.284,7.989-3.483c2.046-2.242,3.113-5.181,2.852-8.229C301.635,443.7,265.476,405.212,196.25,393.37v-23.271
        h10.885c5.987,0,10.885-4.898,10.885-10.885v-43.538c0-6.008-4.898-10.885-10.885-10.885H98.289
        c-5.987,0-10.885,4.876-10.885,10.885v43.538c0,5.987,4.898,10.885,10.885,10.885h10.885v23.271
        C41.057,405.103,5.421,443.591,0.371,510.771z M506.853,9.339c-4.245-4.245-11.146-4.245-15.369,0l-55.773,55.686V10.906
        c0-3.766-1.959-7.271-5.138-9.252c-3.178-2.003-7.184-2.199-10.558-0.522c-22.945,11.342-59.452,35.527-93.303,69.379
        c-65.569,65.547-94.348,137.886-71.73,175.221l-27.756,27.734c-4.245,4.245-4.245,11.146,0,15.391
        c4.158,4.201,11.081,4.289,15.391,0l27.56-27.538c10.928,7.249,24.403,10.863,39.489,10.863
        c36.268,0,81.635-20.158,122.517-57.318c3.287-3.026,4.441-7.772,2.83-11.973c-1.611-4.201-5.682-6.944-10.188-6.944H335.53
        l21.769-21.769h100.182c5.987,0,10.885-4.898,10.885-10.885c0-6.008-4.898-10.885-10.885-10.885h-78.369l21.769-21.769h88.274
        c3.875,0,7.51-2.112,9.448-5.486c27.886-48.654,31.13-91.322,9.034-114.637C507.637,10.514,506.854,9.339,506.853,9.339z"/>
    </g>
  </symbol>
  <symbol id="glass" viewBox="0 0 405.279 405.279">
    <g>
    <path style="fill:#FBB03B;" d="M225.144,0h-45.009c-7.038,0-12.744,5.705-12.744,12.744v98.25h70.496v-98.25
      C237.888,5.705,232.182,0,225.144,0z"/>
    <rect x="153.141" y="86.993" style="fill:#6BC0DD;" width="99" height="73.5"/>
    <circle style="fill:#6BC0DD;" cx="202.639" cy="266.266" r="139.013"/>
    <path style="fill:#DB6B79;" d="M100.608,206.281c-10.364,17.591-16.316,38.091-16.316,59.985
      c0,65.361,52.986,118.347,118.348,118.347s118.348-52.986,118.348-118.347c0-21.894-5.952-42.395-16.316-59.985H100.608z"/>
    <rect x="153.141" y="86.993" style="fill:#509BAD;" width="99" height="24"/>
    <path style="fill:none;stroke:#FFFFFF;stroke-width:10;stroke-linecap:round;stroke-miterlimit:10;" d="M226.08,167.314
      c-7.525-1.776-15.373-2.715-23.44-2.715"/>
    <path style="fill:none;stroke:#FFFFFF;stroke-width:10;stroke-linecap:round;stroke-miterlimit:10;" d="M280.107,332.11
      c15.092-17.739,24.2-40.728,24.2-65.844c0-34.609-17.293-65.179-43.71-83.541"/>
    <path style="fill:#6BC0DD;" d="M264.136,50.997H141.142c-12.012,0-21.749,9.737-21.749,21.749v0
      c0,12.012,9.737,21.749,21.749,21.749h122.994c12.012,0,21.749-9.737,21.749-21.749v0
      C285.885,60.735,276.148,50.997,264.136,50.997z"/>
    
      <line style="fill:none;stroke:#FFFFFF;stroke-width:10;stroke-linecap:round;stroke-miterlimit:10;" x1="203.418" y1="62.997" x2="267.915" y2="62.997"/>
    
      <line style="fill:none;stroke:#FFFFFF;stroke-width:10;stroke-linecap:round;stroke-miterlimit:10;" x1="168.92" y1="62.997" x2="182.42" y2="62.997"/>
    <circle style="fill:#E88B9B;" cx="148.894" cy="309.512" r="26.249"/>
    <circle style="fill:#E88B9B;" cx="184.68" cy="353.201" r="12.739"/>
    
      <line style="fill:none;stroke:#FFFFFF;stroke-width:10;stroke-linecap:round;stroke-miterlimit:10;" x1="233.417" y1="109.495" x2="233.417" y2="128.994"/>
    </g>
  </symbol>
  <symbol id="military" viewBox="0 0 213.563 213.563">
    <path d="M106.782,213.563c-0.774,0-1.549-0.18-2.259-0.539c-1.767-0.896-43.521-22.334-65.278-58.595
	c-21.583-35.971-25.604-71.428-25.765-72.92c-0.245-2.271,1.082-4.421,3.223-5.22c0.134-0.051,15.014-5.869,15.014-18.489
	c0-1.935-0.294-4.443-1.693-5.406c-1.997-1.375-6.417-0.403-8.127,0.253c-1.537,0.588-3.276,0.386-4.632-0.546
	c-1.356-0.934-2.177-2.47-2.177-4.115V17.724c0-1.693,0.857-3.271,2.277-4.193c1.421-0.924,3.21-1.063,4.757-0.374
	c1.891,0.822,6.622,2.048,9.039,0.525c2.25-1.412,2.476-6.037,2.232-8.056c-0.171-1.42,0.272-2.859,1.221-3.93
	C35.562,0.626,36.922,0,38.352,0h136.858c1.44,0,2.81,0.621,3.759,1.703c0.949,1.082,1.386,2.521,1.198,3.949
	c-0.24,1.992-0.015,6.617,2.234,8.029c2.42,1.52,7.148,0.296,9.06-0.534c1.546-0.672,3.336-0.525,4.745,0.4
	c1.409,0.924,2.269,2.49,2.269,4.176v30.262c0,1.654-0.818,3.201-2.185,4.133c-1.366,0.931-3.105,1.127-4.646,0.52
	c-1.689-0.646-6.11-1.618-8.106-0.245c-1.399,0.963-1.693,3.473-1.693,5.407c0,12.62,14.879,18.438,15.03,18.495
	c2.123,0.81,3.45,2.955,3.207,5.214c-0.161,1.492-4.182,36.949-25.765,72.92c-21.756,36.261-63.511,57.699-65.277,58.595
	C108.331,213.383,107.556,213.563,106.782,213.563z M23.926,83.927c1.564,9.621,7.271,37.653,23.894,65.357
	c17.48,29.133,50.111,48.67,58.962,53.598c8.85-4.927,41.481-24.465,58.961-53.598c16.666-27.776,22.344-55.746,23.897-65.355
	c-6.173-3.284-17.793-11.42-17.793-26.129c0-7.886,3.303-11.791,6.074-13.679c3.337-2.273,7.268-2.629,10.556-2.343V24.217
	c-3.48,0.453-7.7,0.252-11.392-2.066c-4.811-3.021-6.389-8.151-6.837-12.15H43.315c-0.448,3.999-2.026,9.13-6.837,12.15
	c-3.691,2.318-7.912,2.523-11.392,2.066v17.562c3.288-0.286,7.219,0.069,10.557,2.343c2.771,1.888,6.074,5.793,6.074,13.679
	C41.717,72.507,30.1,80.642,23.926,83.927z M57.618,145.064c-3.339,0-6.478-1.3-8.839-3.661c-2.361-2.36-3.661-5.499-3.661-8.838
	c0-3.34,1.3-6.479,3.662-8.84l17.029-17.028l-6.715-6.716c-1.953-1.952-1.953-5.118,0-7.07c1.953-1.953,5.118-1.953,7.071,0
	l5.566,5.565l15.051-15.051L70.808,67.452c-8.475-8.476-15.222-18.334-20.054-29.3l-3.26-7.398c-0.832-1.888-0.418-4.093,1.04-5.551
	c1.458-1.46,3.661-1.874,5.552-1.04l7.398,3.26c10.967,4.832,20.825,11.579,29.299,20.054l15.974,15.974l15.974-15.974
	c8.474-8.475,18.332-15.222,29.299-20.054l0,0l7.398-3.26c1.889-0.832,4.093-0.419,5.552,1.04c1.458,1.458,1.872,3.663,1.04,5.551
	l-3.26,7.398c-4.833,10.969-11.58,20.826-20.054,29.3l-15.973,15.974L141.906,98.6l5.688-5.688c1.953-1.953,5.118-1.953,7.071,0
	c1.953,1.952,1.953,5.118,0,7.07l-6.715,6.716l17.03,17.029c2.361,2.36,3.661,5.499,3.661,8.839c0,3.339-1.3,6.478-3.662,8.839
	c-4.874,4.873-12.803,4.873-17.677,0l-17.03-17.03l-6.715,6.715c-1.953,1.953-5.118,1.953-7.071,0c-1.953-1.952-1.953-5.118,0-7.07
	l5.443-5.443l-15.173-15.174l-15.051,15.051l5.566,5.566c1.953,1.952,1.953,5.118,0,7.07c-1.953,1.953-5.118,1.953-7.071,0
	l-6.715-6.715l-17.03,17.029C64.096,143.765,60.957,145.064,57.618,145.064z M72.88,113.769l-17.029,17.028
	c-0.637,0.638-0.732,1.382-0.732,1.769c0,0.386,0.095,1.13,0.732,1.767c0.976,0.977,2.561,0.976,3.536,0.001l0,0l17.029-17.029
	L72.88,113.769z M137.345,117.304l17.029,17.029c0.975,0.975,2.561,0.975,3.535,0c0.637-0.638,0.732-1.382,0.732-1.768
	c0-0.387-0.095-1.131-0.732-1.768c0,0,0,0,0-0.001l-17.029-17.028L137.345,117.304z M82.695,109.441l1.94,1.939L99.686,96.33
	l-5.834-5.833l-15.05,15.051L82.695,109.441z M111.215,93.718l17.664,17.663l5.833-5.833l-51-51.001
	c-6.368-6.368-13.607-11.647-21.574-15.74c4.092,7.966,9.373,15.206,15.741,21.575l18.583,18.583
	c0.375,0.215,0.728,0.483,1.048,0.804l12.905,12.904C110.73,92.986,110.998,93.339,111.215,93.718z M113.951,70.398l5.834,5.834
	l15.851-15.852c6.368-6.368,11.648-13.606,15.741-21.574c-7.967,4.093-15.206,9.372-21.574,15.74L113.951,70.398z"/>
  </symbol>
  <symbol id="mortar" viewBox="0 0 463 463">
		<g transform="translate(0 -540.36)">
      <g>
        <g>
          <path d="M436.9,677.719L436.9,677.719c-12.6-7.8-29.8-14.6-51.2-20.3c7.9-18.9,16.2-39.4,24.4-60.2c7.8-17.5-4.1-42.5-19.2-51.6
            l-0.5-0.3c-17.9-9-48.5-5.9-59.5,11.4c-17.6,28-36.1,57.3-53.3,84.5c-15.2-1-30.9-1-46.1-1c-59.3,0-114.7,6.1-155.9,17
            c-22.7,6-40.5,13.5-53.1,22c-14.9,10.2-22.5,22.2-22.5,35.6c0,76.5,23.8,148.5,67,203c43.8,55.1,102.2,85.5,164.5,85.5
            c31.3,0,61.8-7.8,90.5-23.1c27.5-14.7,52.3-35.7,73.6-62.4c43.5-54.6,67.4-126.7,67.4-203
            C463,700.919,454.2,688.419,436.9,677.719z M343.6,564.819L343.6,564.819c6.3-9.9,28-11.9,39.8-6.2c9.3,5.8,17.4,22.8,13,32.6
            l-0.2,0.4c-26.4,67-54,129.8-62.9,149.7c-29,3.6-63.5,5.9-101.9,5.9c-1,0-2,0-3,0C248.3,715.819,298.8,635.819,343.6,564.819z
             M383.8,908.519c-41,51.5-95.1,79.9-152.3,79.9c-119.4,0-216.5-122.7-216.5-273.5c0-16.7,22.9-32,64.4-43.1
            c40-10.7,94-16.5,152.1-16.5c12.2,0,24.8,0,36.9,0.5c-26.8,42.4-49,77.7-57.6,91.2c-84-1.7-153.9-13.7-173.7-30.4
            c-3.2-2.7-7.9-2.3-10.6,0.9s-2.3,7.9,0.9,10.6c29.9,25.2,128.6,34.1,203.9,34.1c94.8,0,176.6-13.6,203.6-33.8
            c3.3-2.5,4-7.2,1.5-10.5s-7.2-4-10.5-1.5c-11,8.3-37.4,16.6-75.3,22.5c6.4-14.6,16.9-38.6,29-67.4c43.4,11.3,68.1,27,68.1,43.5
            C448,787.819,425.2,856.619,383.8,908.519z"/>
          <path d="M406.8,783.619c-3.9-1.2-8.1,1-9.4,4.9c-9.7,30.1-25.6,59.4-46,84.6c-2.6,3.2-2.1,7.9,1.1,10.5c1.4,1.2,3,1.7,4.7,1.7
            c2.2,0,4.3-1,5.9-2.8c21.6-26.7,38.4-57.6,48.6-89.5C412.9,789.119,410.7,784.919,406.8,783.619z"/>
          <path d="M338.5,896.419c-3.8,0-7.5,3.8-7.5,7.5c0,5,3.8,8.7,7.5,8.7c5,0,8.7-3.7,8.7-8.7
            C347.2,900.219,343.5,896.419,338.5,896.419z"/>
        </g>
      </g>
    </g>
  </symbol>
  <symbol id="papyrus" viewBox="0 0 465 465">
    <g>
      <path style="fill:#FF9926;" d="M396.137,67.447c-10.325,0-18.725,8.399-18.725,18.724v8.234h63.672V59.948h-37.447
        C403.637,64.09,400.279,67.447,396.137,67.447z"/>
      <path style="fill:#FECC33;" d="M396.137,15H147.535c-24.784,0-44.947,20.163-44.947,44.947v37.178l16.675,13.175
        c1.801,1.422,2.851,3.591,2.851,5.885s-1.05,4.463-2.851,5.885l-16.675,13.175v24.818l16.675,13.174
        c1.801,1.422,2.851,3.59,2.851,5.885c0,2.294-1.05,4.463-2.851,5.885l-16.675,13.175v157.414h187.227c4.143,0,7.5,3.357,7.5,7.5
        v15.734c0,10.324,8.399,18.724,18.724,18.724c4.143,0,7.5,3.357,7.5,7.5h0.625c14.483,0,26.224-11.741,26.224-26.224v-15.735
        v-59.274l-4.447-3.274c-1.884-1.387-3.012-3.573-3.052-5.912c-0.039-2.339,1.015-4.563,2.85-6.012l16.675-13.173V86.171
        c0-18.596,15.129-33.724,33.725-33.724c4.143,0,7.5,3.357,7.5,7.5v0h37.447v0C441.084,35.163,420.921,15,396.137,15z"/>
      <path style="fill:#FF9926;" d="M350.386,378.829c0,14.483-11.741,26.224-26.224,26.224h-0.625v0c0,4.143-3.357,7.5-7.5,7.5
        c-18.596,0-33.724-15.128-33.724-33.724v-8.234H23.916v34.458c0,24.784,20.163,44.947,44.947,44.947h248.602
        c24.784,0,44.947-20.163,44.947-44.947v-92.378l-12.026-8.855v59.274V378.829z"/>
      <path d="M396.137,0H147.535C114.48,0,87.588,26.893,87.588,59.947v40.811c0,2.294,1.05,4.463,2.851,5.885l12.077,9.542
        l-12.077,9.542c-1.801,1.422-2.851,3.591-2.851,5.885v32.084c0,2.295,1.05,4.463,2.851,5.885l12.076,9.541l-12.076,9.542
        c-1.801,1.422-2.851,3.591-2.851,5.885v161.047H16.416c-4.143,0-7.5,3.357-7.5,7.5v41.958C8.916,438.107,35.809,465,68.863,465
        h248.602c33.055,0,59.947-26.893,59.947-59.947v-96.169c0-2.384-1.133-4.626-3.053-6.039l-11.608-8.549l11.811-9.33
        c1.8-1.422,2.851-3.59,2.851-5.885V109.405h71.172c4.143,0,7.5-3.357,7.5-7.5V59.947C456.084,26.893,429.191,0,396.137,0z
         M441.084,59.948v34.458h-63.672v-8.234c0-10.324,8.399-18.724,18.725-18.724c4.143,0,7.5-3.357,7.5-7.5v0
        c0-4.143-3.357-7.5-7.5-7.5c-18.596,0-33.725,15.128-33.725,33.724v189.277l-16.675,13.173c-1.835,1.449-2.889,3.673-2.85,6.012
        c0.04,2.339,1.168,4.525,3.052,5.912l4.447,3.274l12.026,8.855v92.378c0,24.784-20.163,44.947-44.947,44.947H68.863
        c-24.784,0-44.947-20.163-44.947-44.947v-34.458h258.398v8.234c0,18.596,15.128,33.724,33.724,33.724c4.143,0,7.5-3.357,7.5-7.5v0
        c0-4.143-3.357-7.5-7.5-7.5c-10.324,0-18.724-8.399-18.724-18.724v-15.734c0-4.143-3.357-7.5-7.5-7.5H102.588V198.181
        l16.675-13.175c1.801-1.422,2.851-3.591,2.851-5.885c0-2.295-1.05-4.463-2.851-5.885l-16.675-13.174v-24.818l16.675-13.175
        c1.801-1.422,2.851-3.591,2.851-5.885s-1.05-4.463-2.851-5.885l-16.675-13.175V59.947c0-24.784,20.163-44.947,44.947-44.947
        h248.602C420.921,15,441.084,35.163,441.084,59.948L441.084,59.948z"/>
    </g>
  </symbol>
  <symbol id="scale" viewBox="0 0 32 32">
    <g>
      <path d="M30.271,20.987l-3.307-10.309h-0.838v-0.564c1.639-0.404,1.667-2.02,1.667-2.02s-0.621,0.729-1.667,1.012V8.66h-0.654
        v0.555c-0.027,0.001-0.052,0.008-0.08,0.009c-1.49,0.036-2.162-2.436-4.037-2.436c-1.746,0-3.696,1.039-4.957,1.183V5.158
        c0.892-0.139,1.574-0.901,1.574-1.831c0.002-1.026-0.832-1.859-1.859-1.859c-1.026,0-1.859,0.833-1.859,1.859
        c0,0.98,0.762,1.775,1.725,1.847V7.95c-1.261-0.199-3.132-1.162-4.816-1.162c-1.875,0-2.545,2.472-4.036,2.436
        C7.006,9.22,6.895,9.201,6.781,9.186V8.66H6.127v0.373c-0.887-0.322-1.4-0.938-1.4-0.938s0.028,1.431,1.4,1.934v0.649H5.29
        l-3.365,10.31H0c0,0,1.381,2.639,6.327,2.639c4.946,0,6.327-2.639,6.327-2.639h-1.729L7.62,10.679H6.781v-0.496
        c0.132,0.014,0.27,0.022,0.419,0.022c2.437,0,2.8-1.545,4.146-1.545c1.211,0,2.63,1.504,4.379,1.808
        c0.075,0.021,0.442-0.004,0.332,0.023L16,16.268l-1.111,2.25l0.038,6.778h-3.054v1.199l-2.455,4.037h13.963l-3-4.092v-1.146h-2.672
        v-6.716l-1.125-2.364l-0.001-5.737c0.101-0.001,0.097,0.021,0.213-0.01c1.749-0.304,3.168-1.808,4.379-1.808
        c1.347,0,1.709,1.545,4.146,1.545c0.056,0,0.102-0.006,0.152-0.008v0.48h-0.836l-3.365,10.309h-1.926c0,0,1.381,2.639,6.327,2.639
        S32,20.987,32,20.987H30.271z M6.127,20.987H2.614l3.15-9.653h0.363V20.987z M7.143,11.333l3.096,9.652H6.781v-9.652H7.143z
         M25.473,20.987h-3.514l3.15-9.653h0.363V20.987L25.473,20.987z M26.127,20.987v-9.654h0.361l3.096,9.652L26.127,20.987
        L26.127,20.987z"/>
    </g>
  </symbol>
  <symbol id="stone" viewBox="0 0 337.994 337.994">
    <g id="Layer_5_51_">
			<g>
				<path d="M185.936,171.392c-4.812,5.053-14.454,9.187-21.434,9.187H12.686c-6.978,0-8.749-4.134-3.938-9.187l136.578-143.42
					c4.812-5.053,14.456-9.187,21.434-9.187h151.817c6.978,0,8.749,4.134,3.938,9.187L185.936,171.392z"/>
				<path d="M177.325,306.524c0,6.978-5.707,12.686-12.685,12.686H12.686C5.708,319.21,0,313.502,0,306.524v-97.913
					c0-6.979,5.708-12.688,12.686-12.688H164.64c6.978,0,12.685,5.709,12.685,12.688V306.524z"/>
				<path d="M337.79,129.296c-0.017,6.978-3.766,17.003-8.33,22.279L197.913,303.64c-4.563,5.274-8.299,3.885-8.299-3.093v-97.801
					c0-6.977,3.939-16.813,8.76-21.859L329.265,43.797c4.817-5.047,8.745-3.467,8.729,3.51L337.79,129.296z"/>
			</g>
		</g>
  </symbol>
  <symbol id="sundial" viewBox="0 0 251.176 251.176">
    <g>
      <path d="M62.413,180.28c-1.258-2.459-4.271-3.433-6.729-2.174c-2.458,1.258-3.432,4.27-2.174,6.729
        c1.921,3.755,4.158,7.392,6.648,10.808c0.979,1.343,2.501,2.056,4.044,2.056c1.021,0,2.053-0.312,2.941-0.96
        c2.232-1.626,2.722-4.754,1.096-6.986C66.057,186.757,64.097,183.57,62.413,180.28z"/>
      <path d="M102.939,75.377c-0.995-2.576-3.89-3.858-6.465-2.865c-3.936,1.519-7.786,3.364-11.442,5.486
        c-2.389,1.386-3.201,4.445-1.815,6.834c0.928,1.599,2.605,2.492,4.33,2.492c0.852,0,1.715-0.218,2.504-0.676
        c3.203-1.858,6.575-3.475,10.023-4.805C102.65,80.848,103.933,77.954,102.939,75.377z"/>
      <path d="M147.532,215.485c-3.517,1.143-7.155,2.015-10.812,2.591c-2.728,0.429-4.591,2.989-4.162,5.716
        c0.388,2.465,2.514,4.223,4.933,4.223c0.258,0,0.521-0.02,0.784-0.062c4.177-0.657,8.332-1.653,12.349-2.959
        c2.626-0.854,4.063-3.675,3.209-6.301C152.979,216.067,150.159,214.629,147.532,215.485z"/>
      <path d="M196.996,174.34c-2.525-1.126-5.479,0.009-6.603,2.531c-1.505,3.377-3.294,6.666-5.317,9.775
        c-1.505,2.315-0.85,5.412,1.465,6.918c0.842,0.547,1.787,0.809,2.722,0.809c1.635,0,3.238-0.801,4.196-2.274
        c2.308-3.548,4.35-7.302,6.068-11.157C200.651,178.42,199.518,175.464,196.996,174.34z"/>
      <path d="M118.205,218.564c-3.69-0.381-7.371-1.057-10.938-2.009c-2.665-0.709-5.408,0.874-6.12,3.542
        c-0.712,2.668,0.875,5.408,3.542,6.12c4.074,1.086,8.275,1.858,12.487,2.294c0.175,0.018,0.348,0.027,0.52,0.027
        c2.53,0,4.702-1.915,4.968-4.486C122.948,221.305,120.952,218.848,118.205,218.564z"/>
      <path d="M173.047,200.723c-2.752,2.481-5.72,4.762-8.821,6.781c-2.314,1.506-2.969,4.604-1.462,6.918
        c0.958,1.472,2.56,2.272,4.195,2.272c0.935,0,1.881-0.262,2.723-0.811c3.537-2.302,6.921-4.904,10.06-7.732
        c2.051-1.849,2.216-5.01,0.367-7.062C178.26,199.038,175.098,198.874,173.047,200.723z"/>
      <path d="M196.502,147.865l0,0.165c0,3.72-0.29,7.453-0.862,11.096c-0.428,2.728,1.436,5.287,4.164,5.715
        c0.263,0.042,0.524,0.061,0.782,0.061c2.419,0,4.546-1.76,4.933-4.225c0.652-4.155,0.983-8.41,0.983-12.692l0-0.12
        c0-2.761-2.239-5-5-5S196.502,145.104,196.502,147.865z"/>
      <path d="M180.62,103.301c0.988,1.214,2.428,1.844,3.881,1.844c1.109,0,2.226-0.367,3.153-1.122
        c2.142-1.743,2.465-4.892,0.722-7.034c-2.666-3.275-5.61-6.366-8.752-9.188c-2.054-1.845-5.216-1.674-7.061,0.38
        c-1.845,2.055-1.674,5.216,0.38,7.061C175.699,97.717,178.282,100.428,180.62,103.301z"/>
      <path d="M144.168,74.234c-0.848,2.628,0.595,5.446,3.223,6.294c3.522,1.137,6.983,2.564,10.285,4.243
        c0.726,0.369,1.5,0.544,2.262,0.544c1.822,0,3.579-1,4.461-2.735c1.251-2.462,0.271-5.472-2.191-6.723
        c-3.771-1.917-7.723-3.547-11.746-4.846C147.835,70.165,145.016,71.606,144.168,74.234z"/>
      <path d="M194.065,129.526c0.601,2.23,2.62,3.7,4.825,3.7c0.431,0,0.868-0.056,1.304-0.174c2.666-0.718,4.245-3.462,3.526-6.129
        c-1.1-4.08-2.534-8.104-4.263-11.962c-1.13-2.52-4.089-3.648-6.608-2.517c-2.52,1.13-3.646,4.088-2.517,6.608
        C191.847,122.43,193.103,125.954,194.065,129.526z"/>
      <path d="M90.169,209.479c-3.205-1.852-6.29-3.973-9.171-6.306c-2.146-1.738-5.295-1.407-7.032,0.739
        c-1.738,2.146-1.407,5.295,0.739,7.032c3.286,2.661,6.805,5.081,10.461,7.192c0.788,0.456,1.648,0.672,2.497,0.672
        c1.728,0,3.408-0.896,4.334-2.5C93.378,213.919,92.56,210.861,90.169,209.479z"/>
      <path d="M61.179,107.521c0.887,0.645,1.915,0.955,2.934,0.955c1.546,0,3.072-0.715,4.05-2.063c2.175-2.995,4.605-5.845,7.224-8.469
        c1.95-1.955,1.946-5.121-0.009-7.071c-1.955-1.95-5.12-1.946-7.071,0.009c-2.984,2.992-5.755,6.241-8.235,9.657
        C58.448,102.772,58.944,105.899,61.179,107.521z"/>
      <path d="M50.271,137.219c0.347,0.073,0.693,0.108,1.034,0.108c2.315,0,4.393-1.617,4.888-3.972
        c0.762-3.625,1.82-7.216,3.144-10.673c0.987-2.579-0.303-5.47-2.881-6.458c-2.58-0.986-5.47,0.303-6.458,2.881
        c-1.512,3.949-2.72,8.051-3.591,12.191C45.838,134,47.568,136.651,50.271,137.219z"/>
      <path d="M56.224,162.848c-0.767-3.609-1.255-7.32-1.45-11.03c-0.146-2.757-2.5-4.858-5.256-4.73
        c-2.758,0.145-4.875,2.499-4.73,5.256c0.223,4.23,0.779,8.464,1.655,12.583c0.5,2.351,2.575,3.961,4.886,3.961
        c0.344,0,0.694-0.036,1.044-0.11C55.074,168.204,56.798,165.549,56.224,162.848z"/>
      <path d="M226.538,103.108L170.51,47.079c-1.406-1.407-3.314-2.197-5.303-2.197h-32.119V7.5c0-4.142-3.358-7.5-7.5-7.5
        s-7.5,3.358-7.5,7.5v14.205l-3.714,23.177H85.97c-1.989,0-3.897,0.79-5.303,2.197l-56.028,56.029
        c-1.407,1.406-2.197,3.314-2.197,5.303v79.236c0,1.989,0.79,3.897,2.197,5.303l56.028,56.029c1.406,1.407,3.314,2.197,5.303,2.197
        h79.237c1.989,0,3.897-0.79,5.303-2.197l56.028-56.029c1.407-1.406,2.197-3.314,2.197-5.303v-79.236
        C228.735,106.422,227.945,104.514,226.538,103.108z M213.735,184.541L162.1,236.176H89.076l-51.635-51.635v-73.023l51.635-51.635
        h22.895l-11.758,73.383c-0.437,2.727,1.419,5.291,4.146,5.728c0.268,0.043,0.534,0.064,0.797,0.064c2.413,0,4.537-1.751,4.931-4.21
        l8.001-49.935v63.117c0,4.142,3.358,7.5,7.5,7.5s7.5-3.358,7.5-7.5V75.596c0.772-0.832,1.282-1.914,1.343-3.137
        c0.07-1.406-0.453-2.701-1.343-3.656v-8.922H162.1l51.635,51.635V184.541z"/>
    </g>
  </symbol>
  <symbol id="triangle" viewBox="0 0 326.534 326.534">
    <g>
      <path d="M326.532,38.375c0.001-15.521-9.35-29.512-23.688-35.451c-14.338-5.939-30.842-2.657-41.815,8.317l-20.065,20.066
        l14.577,14.577c3.222,3.222,3.222,8.446,0,11.667c-3.223,3.221-8.445,3.222-11.667,0l-14.577-14.577l-37.83,37.831l14.576,14.577
        c3.223,3.222,3.223,8.445,0,11.667c-3.222,3.222-8.444,3.222-11.667,0l-14.576-14.576l-37.831,37.83l14.577,14.576
        c3.222,3.222,3.222,8.446,0,11.667c-3.222,3.221-8.445,3.222-11.667,0l-14.577-14.577l-37.83,37.83l14.576,14.577
        c3.222,3.222,3.222,8.445,0,11.667c-3.222,3.222-8.445,3.222-11.667,0l-14.577-14.577l-37.83,37.831l14.576,14.576
        c3.222,3.222,3.222,8.445,0,11.667c-3.222,3.221-8.445,3.222-11.667,0l-14.576-14.576L11.241,261.03
        c-10.974,10.974-14.258,27.477-8.318,41.814c5.939,14.338,19.93,23.688,35.451,23.688l249.788-0.001
        c10.18,0,19.938-4.044,27.134-11.238c7.194-7.195,11.239-16.955,11.239-27.133L326.532,38.375z M249.788,249.79l-118.778,0.002
        l118.779-118.78L249.788,249.79z"/>
    </g>
  </symbol>
  <symbol id="vp" viewBox="0 0 511.998 511.998">
    <g>
      <polygon style="fill:#A0D468;" points="113.999,66.491 88.499,99.491 108.999,102.991 125.999,63.491 	"/>
      <polygon style="fill:#A0D468;" points="85.499,193.991 85.499,227.491 116.999,211.491 132.999,156.991 	"/>
      <polygon style="fill:#A0D468;" points="34.999,128.491 40.999,151.991 63.999,184.991 71.999,156.991 	"/>
      <polygon style="fill:#A0D468;" points="139.999,253.491 125.999,275.991 111.499,317.491 139.999,342.491 155.999,296.991 	"/>
      <path style="fill:#A0D468;" d="M77.999,258.991l-58.5-20l5,14.5c-3,2.5,23,29.5,23,29.5l34.5,9L77.999,258.991z"/>
      <polygon style="fill:#A0D468;" points="111.499,350.491 44.499,342.491 64.499,366.991 125.999,391.491 144.999,378.991 	"/>
      <polygon style="fill:#A0D468;" points="189.999,337.319 183.327,342.491 189.999,404.663 219.327,414.663 227.999,381.319 	"/>
      <polygon style="fill:#A0D468;" points="397.827,67.991 423.327,100.991 402.827,104.491 385.827,64.991 	"/>
      <polygon style="fill:#A0D468;" points="423.327,192.491 423.327,225.991 391.827,209.991 375.827,155.491 	"/>
      <polygon style="fill:#A0D468;" points="473.827,131.741 467.827,155.241 444.827,188.241 436.827,160.241 	"/>
      <polygon style="fill:#A0D468;" points="368.827,256.741 382.827,279.241 397.327,320.741 368.827,345.741 352.827,300.241 	"/>
      <path style="fill:#A0D468;" d="M430.827,262.241l58.5-20l-5,14.5c3,2.5-23,29.5-23,29.5l-34.5,9L430.827,262.241z"/>
      <polygon style="fill:#A0D468;" points="397.327,353.741 464.327,345.741 444.327,370.241 382.827,394.741 363.827,382.241 	"/>
      <polygon style="fill:#A0D468;" points="312.577,337.319 319.249,342.491 312.577,404.663 283.249,414.663 274.577,381.319 	"/>
    </g>
  <path d="M410.061,332.085c0-0.031,0.016-0.047,0.031-0.062c6.281-10.391,11.781-21.297,16.453-32.656
    c5.188,1.766,10.156,2.562,14.891,2.562c45.719,0,70.562-74.062,70.562-74.062c-4.875-0.406-9.516-0.594-13.906-0.594
    c-25.406,0-43.203,6.344-55.656,15.094c2.234-14.016,3.438-28.469,3.578-43.203c50.625-8.062,37.797-90.984,37.797-90.984
    c-21.25,8.844-34.719,19.625-43.062,30.641c-2.859-15.672-6.031-26.891-7.156-30.656c12.328-44.047-59.344-70.375-59.344-70.375
    c-6.328,56.953,22.844,75.734,40.297,81.828c1.578,5.375,6.984,25.188,9.203,52.734c-20.062-22.531-50.484-36.578-50.484-36.578
    c-14.875,76.844,29.406,99.5,47.734,105.5c-0.469,2.75-0.969,5.469-1.516,8.172c-3.297,16.172-8.172,31.609-14.531,46.203
    c-6.984-31.752-29.953-61.345-29.953-61.345c-49.406,62.406-22,104.125-7.531,119.484c-11.281,12.562-24.203,24.078-38.703,34.531
    c7.625-34.109-6.141-76.156-6.141-76.156c-64.469,40.234-56.75,86.281-48.562,107.234c-5.844,2.625-11.875,5.109-18.062,7.5
    c-7.422-2.859-14.609-5.891-21.547-9.078c6.094-22.016,8.469-67.422-57.922-101.203c0,0-7.953,34.016-2.266,64.938
    c-10.922-8.594-20.828-17.859-29.734-27.766c14.468-15.359,41.859-57.078-7.532-119.484c0,0-22.969,29.594-29.953,61.328
    c-6.297-14.422-11.125-29.672-14.422-45.641c-0.594-2.875-1.125-5.781-1.625-8.719c18.344-6,62.609-28.656,47.75-105.5
    c0,0-30.438,14.047-50.5,36.578c2.219-27.422,7.625-47.328,9.219-52.734c17.453-6.109,46.609-24.875,40.281-81.828
    c0,0-71.75,26.359-59.328,70.438c-1.141,3.828-4.312,15.016-7.156,30.609c-8.359-11.016-21.828-21.812-43.078-30.656
    c0,0-12.828,82.922,37.797,90.984c0.141,14.734,1.344,29.188,3.578,43.203c-12.453-8.75-30.25-15.094-55.656-15.094
    c-4.391,0-9.031,0.188-13.906,0.594c0,0,24.844,74.062,70.562,74.062c4.734,0,9.703-0.797,14.891-2.562
    c4.672,11.359,10.172,22.266,16.453,32.656c0.016,0.016,0.031,0.031,0.031,0.062c-7.141-1.812-15.078-2.844-23.875-2.844
    c-15.781,0-34.344,3.344-56.078,11.688c0,0,45.172,64.891,93.75,64.891c12.266,0,24.734-4.141,36.766-14.5
    c20.812,17.828,45.234,33.156,73.188,45.969c-21.328,6.453-44.312,11.75-68.938,15.891l3.531,21.031
    c35.016-5.875,66.938-14.062,95.719-24.531c28.781,10.469,60.703,18.656,95.719,24.531l3.531-21.031
    c-24.625-4.141-47.609-9.438-68.938-15.891c27.953-12.812,52.375-28.141,73.188-45.969c12.016,10.359,24.5,14.5,36.766,14.5
    c48.578,0,93.75-64.891,93.75-64.891c-21.734-8.344-40.297-11.688-56.078-11.688C425.14,329.241,417.202,330.272,410.061,332.085z
     M452.296,161.179c2.234-5.531,5.828-10.672,10.734-15.438c-1.453,11.781-4.672,20.969-9.281,26.344
    c-1.062,1.25-2.391,2.562-4.266,3.672C449.499,171.366,450.202,166.335,452.296,161.179z M477.733,250.46
    c-0.719,1.188-1.453,2.344-2.203,3.516c-5.625,8.609-11.422,15.281-17.266,19.859c-5.828,4.562-11.328,6.766-16.828,6.766
    c-1,0-2.031-0.078-3.078-0.234c1.281-3.062,3.016-6.391,5.344-9.656C451.155,260.288,462.561,253.522,477.733,250.46z
     M404.64,87.804c-2.891-3.594-5.156-7.812-6.797-12.688c7.938,6.188,13.188,12.469,15.062,18.219
    c0.234,0.703,0.438,1.469,0.594,2.297C410.452,93.726,407.374,91.179,404.64,87.804z M418.749,217.179
    c-7.125-3.828-12.953-8.984-17.312-15.344c-5.5-8.016-8.703-17.969-9.609-29.781c15.047,11.406,24.641,23.266,27.125,33.547
    C419.655,208.46,420.124,212.304,418.749,217.179z M291.093,381.069c2.297-10.812,8.203-21.172,17.672-31
    c1.906,16.766,1.469,35.609-6.281,47.266c-2.844,4.281-6.516,7.062-10.359,8.875C290.249,399.538,289.061,390.726,291.093,381.069z
     M193.624,353.179c10.047,8.766,16.75,18.344,20.016,28.656c2.578,8.125,3.031,16.703,1.359,25.547
    c-3.969-1.469-7.844-3.922-11.047-7.922C195.28,388.569,193.218,369.96,193.624,353.179z M58.28,172.116
    c-4.625-5.359-7.844-14.562-9.312-26.375c4.906,4.766,8.5,9.906,10.734,15.438c2.094,5.156,2.797,10.188,2.812,14.578
    C60.655,174.647,59.327,173.351,58.28,172.116z M93.03,205.647c2.469-10.281,12.078-22.188,27.141-33.594
    c-0.906,11.812-4.109,21.766-9.609,29.781c-4.359,6.359-10.188,11.516-17.312,15.344C91.874,212.319,92.343,208.491,93.03,205.647z
     M99.077,93.366c1.875-5.734,7.109-12.047,15.062-18.25c-1.625,4.875-3.891,9.094-6.781,12.688
    c-2.734,3.375-5.812,5.922-8.859,7.828C98.655,94.804,98.858,94.054,99.077,93.366z M70.561,280.601c-5.5,0-11-2.203-16.828-6.766
    c-5.844-4.578-11.641-11.25-17.266-19.859c-0.75-1.172-1.484-2.344-2.203-3.516c15.172,3.062,26.578,9.828,34.031,20.25
    c2.328,3.266,4.047,6.594,5.344,9.656C72.593,280.522,71.561,280.601,70.561,280.601z M136.921,275.335
    c0.109-0.234,0.219-0.469,0.344-0.719c5.5,12.203,7.609,23.75,6.266,34.531c-1.047,8.469-4.234,16.469-9.453,23.812
    c-4.328-4.266-5.922-8.5-6.75-11.797C124.577,310.038,127.968,293.772,136.921,275.335z M115.733,384.491
    c-14.203,0-31.484-9.062-49.984-26.188c-2.172-2.016-4.234-4.031-6.188-6.016c6.469-1.141,12.641-1.719,18.5-1.719l0,0
    c19.656,0,35.906,6.484,48.297,19.281c2.953,3.062,5.391,6.172,7.328,9.016C127.937,382.632,121.983,384.491,115.733,384.491z
     M374.733,274.616c0,0.016,0.016,0.031,0.016,0.031c9.188,18.688,12.703,35.188,9.922,46.469c-0.812,3.312-2.406,7.562-6.75,11.844
    c-5.219-7.344-8.406-15.344-9.453-23.812C367.124,298.366,369.233,286.835,374.733,274.616z M446.796,357.788
    c-8.781,8.203-17.422,14.672-25.656,19.203c-9.062,4.969-17.422,7.5-24.875,7.5c-6.25,0-12.203-1.859-17.953-5.625
    c1.938-2.844,4.359-5.953,7.328-9.016c12.391-12.797,28.641-19.266,48.297-19.266c5.859,0,12.031,0.562,18.5,1.703
    C450.655,354.116,448.765,355.96,446.796,357.788z"/>
  </symbol>
  <symbol id="wheel" viewBox="0 0 63.067 63.067">
    <g>
      <path d="M31.534,0C14.149,0,0,14.146,0,31.533C0,48.92,14.149,63.067,31.534,63.067c17.387,0,31.533-14.147,31.533-31.534
        C63.067,14.146,48.921,0,31.534,0z M31.534,34.736c-1.768,0-3.205-1.438-3.205-3.203c0-1.765,1.438-3.202,3.205-3.202
        c1.768,0,3.205,1.437,3.205,3.202C34.739,33.299,33.302,34.736,31.534,34.736z M35.175,24.591
        c-0.417-0.219-0.848-0.396-1.305-0.539V6.93c5.066,0.477,9.689,2.481,13.403,5.558L35.175,24.591z M29.198,24.052
        c-0.45,0.143-0.887,0.32-1.306,0.539L15.788,12.488c3.715-3.074,8.339-5.081,13.406-5.558L29.198,24.052L29.198,24.052z
         M24.589,27.894c-0.219,0.417-0.397,0.849-0.537,1.304H6.933c0.477-5.064,2.48-9.691,5.56-13.406L24.589,27.894z M24.052,33.869
        c0.143,0.456,0.32,0.888,0.537,1.305L12.486,47.277c-3.075-3.718-5.081-8.342-5.558-13.406h17.124V33.869z M27.893,38.477
        c0.418,0.22,0.849,0.397,1.306,0.539v17.121c-5.066-0.477-9.688-2.481-13.402-5.557L27.893,38.477z M33.87,39.016
        c0.45-0.142,0.888-0.319,1.305-0.539L47.28,50.583c-3.716,3.072-8.34,5.079-13.405,5.557L33.87,39.016L33.87,39.016z
         M38.478,35.174c0.219-0.417,0.397-0.849,0.538-1.305h17.12c-0.477,5.064-2.479,9.69-5.56,13.406L38.478,35.174z M39.016,29.198
        c-0.141-0.455-0.319-0.887-0.538-1.304l12.104-12.102c3.075,3.714,5.082,8.342,5.559,13.406H39.016z M48.102,11.663
        c-3.931-3.282-8.844-5.415-14.231-5.899V4.79c5.652,0.491,10.808,2.729,14.918,6.187L48.102,11.663z M29.198,5.764
        C23.81,6.25,18.897,8.381,14.967,11.663l-0.688-0.687c4.111-3.456,9.267-5.696,14.919-6.187V5.764z M11.664,14.966
        c-3.283,3.931-5.416,8.845-5.899,14.232H4.791c0.494-5.653,2.729-10.808,6.186-14.919L11.664,14.966z M5.765,33.869
        c0.483,5.388,2.616,10.302,5.899,14.231l-0.687,0.687c-3.457-4.11-5.694-9.266-6.186-14.918H5.765z M14.967,51.404
        c3.93,3.282,8.843,5.415,14.231,5.898v0.974c-5.652-0.49-10.808-2.728-14.919-6.186L14.967,51.404z M33.87,57.303
        c5.388-0.486,10.301-2.616,14.231-5.898l0.687,0.687c-4.11,3.455-9.266,5.695-14.918,6.186V57.303L33.87,57.303z M51.404,48.101
        c3.283-3.93,5.416-8.844,5.899-14.231h0.974c-0.492,5.652-2.729,10.808-6.187,14.918L51.404,48.101z M57.304,29.198
        c-0.483-5.387-2.616-10.301-5.899-14.232l0.687-0.688c3.458,4.112,5.694,9.267,6.187,14.919H57.304z"/>
    </g>
  </symbol>
  <symbol id="wonder" viewBox="0 0 465.99 465.99">
    <g>
      <path d="M133.539,344.23c0.024,0.024,0.048,0.048,0.073,0.072c1.595,1.554,3.704,2.41,5.938,2.41c2.234,0,4.343-0.856,5.938-2.41
        c0.03-0.029,0.059-0.058,0.088-0.087c1.597-1.604,2.476-3.736,2.476-6.003c0-2.191-0.835-4.276-2.351-5.869
        c-0.084-0.089-0.171-0.176-0.26-0.26c-1.595-1.529-3.687-2.371-5.891-2.371c-2.26,0-4.39,0.88-5.997,2.479
        c-1.614,1.606-2.503,3.744-2.503,6.021C131.049,340.488,131.933,342.626,133.539,344.23z"/>
      <path d="M109.615,252.333c0.029,0.029,0.058,0.058,0.088,0.087c1.595,1.554,3.704,2.41,5.938,2.41c2.234,0,4.343-0.856,5.938-2.41
        c0.035-0.034,0.069-0.067,0.103-0.102c1.587-1.603,2.461-3.73,2.461-5.988c0-2.184-0.83-4.264-2.338-5.855
        c-0.088-0.094-0.179-0.186-0.272-0.274c-1.595-1.529-3.687-2.371-5.891-2.371c-2.268,0-4.402,0.886-5.997,2.479
        c-1.614,1.606-2.503,3.744-2.503,6.021C107.14,248.598,108.019,250.73,109.615,252.333z"/>
      <path d="M464.505,303.176c0.055-0.077,0.106-0.155,0.158-0.233c0.1-0.152,0.196-0.306,0.285-0.464
        c0.05-0.089,0.099-0.178,0.146-0.269c0.08-0.155,0.153-0.312,0.223-0.471c0.043-0.098,0.086-0.195,0.125-0.294
        c0.064-0.164,0.119-0.331,0.172-0.499c0.03-0.096,0.064-0.191,0.091-0.289c0.06-0.218,0.108-0.439,0.149-0.661
        c0.008-0.044,0.022-0.086,0.029-0.13c0.001-0.005,0.001-0.011,0.002-0.016c0.046-0.277,0.077-0.556,0.094-0.837
        c0.003-0.057,0.001-0.115,0.003-0.172c0.009-0.222,0.011-0.444,0.001-0.667c-0.004-0.08-0.013-0.159-0.019-0.239
        c-0.015-0.199-0.035-0.398-0.065-0.597c-0.013-0.086-0.03-0.172-0.046-0.257c-0.035-0.187-0.075-0.374-0.123-0.559
        c-0.024-0.093-0.051-0.185-0.078-0.277c-0.051-0.171-0.108-0.34-0.172-0.509c-0.038-0.102-0.078-0.204-0.12-0.305
        c-0.064-0.151-0.134-0.3-0.208-0.448c-0.055-0.11-0.11-0.22-0.17-0.328c-0.027-0.048-0.047-0.098-0.075-0.146
        c-0.054-0.094-0.118-0.178-0.175-0.269c-0.064-0.101-0.127-0.202-0.196-0.301c-0.108-0.154-0.224-0.3-0.341-0.445
        c-0.045-0.055-0.083-0.115-0.129-0.169l-225-262.161c-0.05-0.059-0.108-0.109-0.159-0.167c-0.117-0.128-0.235-0.255-0.36-0.376
        c-0.08-0.077-0.162-0.149-0.245-0.222c-0.124-0.11-0.25-0.217-0.38-0.319c-0.085-0.067-0.172-0.131-0.26-0.195
        c-0.139-0.1-0.281-0.195-0.426-0.286c-0.085-0.053-0.169-0.106-0.255-0.155c-0.159-0.092-0.323-0.176-0.489-0.257
        c-0.079-0.038-0.157-0.078-0.237-0.114c-0.181-0.081-0.367-0.152-0.556-0.22c-0.071-0.026-0.141-0.054-0.212-0.078
        c-0.201-0.066-0.407-0.12-0.615-0.17c-0.064-0.016-0.126-0.035-0.191-0.049c-0.217-0.047-0.439-0.08-0.663-0.109
        c-0.058-0.007-0.115-0.02-0.173-0.026c-0.28-0.03-0.563-0.046-0.85-0.046s-0.571,0.017-0.85,0.046
        c-0.058,0.006-0.115,0.019-0.173,0.026c-0.223,0.029-0.445,0.062-0.663,0.109c-0.064,0.014-0.127,0.034-0.191,0.049
        c-0.208,0.05-0.414,0.104-0.615,0.17c-0.072,0.024-0.141,0.052-0.212,0.078c-0.188,0.068-0.374,0.139-0.556,0.22
        c-0.08,0.036-0.158,0.076-0.237,0.114c-0.166,0.081-0.329,0.165-0.489,0.257c-0.086,0.05-0.171,0.102-0.255,0.155
        c-0.145,0.091-0.287,0.186-0.426,0.286c-0.088,0.063-0.175,0.128-0.26,0.195c-0.13,0.102-0.256,0.209-0.38,0.319
        c-0.082,0.073-0.165,0.146-0.245,0.222c-0.125,0.121-0.243,0.247-0.36,0.376c-0.052,0.057-0.109,0.108-0.159,0.167l-49.955,58.206
        c-0.005,0.005-0.009,0.011-0.014,0.016l-43.361,50.522c-0.005,0.006-0.01,0.011-0.015,0.017L1.924,293.325
        c-0.046,0.054-0.084,0.113-0.129,0.168c-0.117,0.145-0.233,0.291-0.342,0.446c-0.069,0.098-0.131,0.199-0.196,0.3
        c-0.058,0.091-0.121,0.175-0.176,0.269c-0.028,0.048-0.049,0.098-0.076,0.146c-0.06,0.108-0.114,0.217-0.169,0.327
        c-0.074,0.149-0.144,0.298-0.208,0.449c-0.042,0.101-0.082,0.202-0.12,0.305c-0.063,0.169-0.121,0.338-0.172,0.509
        c-0.028,0.092-0.054,0.184-0.078,0.277c-0.048,0.186-0.089,0.372-0.123,0.559c-0.016,0.086-0.033,0.171-0.046,0.257
        c-0.03,0.199-0.05,0.399-0.065,0.598c-0.006,0.079-0.015,0.157-0.019,0.236c-0.01,0.223-0.008,0.446,0.001,0.668
        c0.002,0.057,0,0.114,0.003,0.171c0.017,0.281,0.048,0.56,0.094,0.837c0.001,0.005,0.001,0.011,0.002,0.016
        c0.007,0.044,0.021,0.086,0.029,0.13c0.041,0.222,0.089,0.443,0.149,0.661c0.027,0.098,0.061,0.192,0.091,0.289
        c0.053,0.168,0.108,0.335,0.172,0.499c0.039,0.1,0.082,0.197,0.125,0.294c0.069,0.159,0.143,0.316,0.223,0.471
        c0.047,0.091,0.096,0.18,0.146,0.269c0.089,0.158,0.185,0.312,0.285,0.464c0.052,0.078,0.103,0.156,0.158,0.233
        c0.112,0.157,0.232,0.309,0.355,0.458c0.054,0.065,0.105,0.131,0.161,0.195c0.135,0.153,0.28,0.299,0.428,0.443
        c0.055,0.053,0.106,0.109,0.162,0.16c0.16,0.146,0.329,0.283,0.503,0.417c0.053,0.041,0.102,0.086,0.156,0.126
        c0.229,0.168,0.467,0.327,0.718,0.473l225,131.08c0.023,0.013,0.047,0.022,0.07,0.035c0.285,0.163,0.579,0.312,0.885,0.439
        c0.006,0.002,0.012,0.004,0.018,0.007c0.287,0.119,0.585,0.217,0.888,0.302c0.078,0.022,0.156,0.041,0.234,0.06
        c0.239,0.059,0.481,0.107,0.728,0.145c0.083,0.012,0.165,0.028,0.248,0.038c0.314,0.038,0.632,0.062,0.956,0.062
        s0.642-0.025,0.956-0.062c0.083-0.01,0.165-0.025,0.248-0.038c0.247-0.037,0.489-0.085,0.728-0.145
        c0.078-0.02,0.156-0.038,0.234-0.06c0.303-0.085,0.6-0.183,0.888-0.302c0.006-0.002,0.012-0.004,0.018-0.007
        c0.306-0.127,0.6-0.277,0.885-0.439c0.023-0.013,0.048-0.022,0.07-0.035l225-131.08c0.251-0.146,0.489-0.305,0.718-0.473
        c0.054-0.04,0.103-0.085,0.156-0.126c0.173-0.134,0.343-0.271,0.503-0.417c0.056-0.052,0.108-0.107,0.162-0.16
        c0.148-0.144,0.293-0.29,0.428-0.443c0.056-0.063,0.108-0.13,0.161-0.195C464.274,303.485,464.393,303.333,464.505,303.176z
         M54.532,256.597l170.464,99.308v59.791L20.321,296.457L54.532,256.597z M97.907,206.058l65.991,38.445
        c1.267,0.738,2.652,1.089,4.02,1.089c2.753,0,5.434-1.423,6.92-3.975c2.224-3.817,0.932-8.715-2.886-10.939l-63.45-36.965
        l32.78-38.194l83.714,48.77v57.29l-23.04-13.422c-3.816-2.223-8.714-0.933-10.939,2.886c-2.224,3.817-0.932,8.715,2.886,10.939
        l31.094,18.115v57.291L65.126,244.252L97.907,206.058z M184.657,104.981l40.339,23.5v11.15c0,4.418,3.582,8,8,8s8-3.582,8-8v-11.15
        l40.339-23.5l32.78,38.194l-24.103,14.042c-3.818,2.224-5.11,7.122-2.886,10.939c1.486,2.551,4.166,3.975,6.92,3.975
        c1.367,0,2.753-0.351,4.02-1.089l26.644-15.522l32.78,38.194L240.995,261.58v-57.29l27.07-15.771
        c3.817-2.224,5.109-7.122,2.885-10.94c-2.225-3.817-7.123-5.108-10.94-2.885l-19.015,11.078v-16.141c0-4.418-3.582-8-8-8
        s-8,3.582-8,8v16.141l-73.119-42.597L184.657,104.981z M240.995,57.98l29.744,34.656l-29.744,17.328V57.98z M224.995,109.964
        l-29.744-17.328l29.744-34.656V109.964z M240.995,355.905l108.206-63.038c3.818-2.224,5.11-7.122,2.886-10.939
        c-2.224-3.818-7.124-5.109-10.939-2.886l-100.152,58.346v-57.291l127.089-74.039l32.78,38.194l-29.717,17.312
        c-3.817,2.224-5.109,7.122-2.885,10.94c1.486,2.551,4.167,3.974,6.92,3.974c1.368,0,2.753-0.351,4.02-1.089l32.257-18.793
        l34.211,39.861L240.995,415.696V355.905z"/>
    </g>
  </symbol>
  <symbol id="wood" viewBox="0 0 512 512">
    <path style="fill:#9E5A23;" d="M264.828,361.931h-256l45.021-124.469l52.083-60.91l17.655-26.483L256,203.034L264.828,361.931z"/>
    <path style="fill:#844414;" d="M211.862,361.931c0-29.131-23.834-52.966-52.966-52.966s-52.966,23.835-52.966,52.966
	c0,29.131,23.834,52.966,52.966,52.966S211.862,391.062,211.862,361.931"/>
    <g>
      <path style="fill:#CE8D5B;" d="M105.931,361.931c0-29.131-23.834-52.966-52.966-52.966S0,332.8,0,361.931
        c0,29.131,23.834,52.966,52.966,52.966S105.931,391.062,105.931,361.931"/>
      <path style="fill:#CE8D5B;" d="M150.069,256c0-29.131-23.834-52.966-52.966-52.966S44.138,226.869,44.138,256
        c0,29.131,23.834,52.966,52.966,52.966S150.069,285.131,150.069,256"/>
    </g>
    <g>
      <path style="fill:#844414;" d="M79.448,264.828c-5.297,0-8.828-3.531-8.828-8.828c0-15.007,11.476-26.483,26.483-26.483
        c5.297,0,8.828,3.531,8.828,8.828s-3.531,8.828-8.828,8.828s-8.828,3.531-8.828,8.828
        C88.276,261.297,84.745,264.828,79.448,264.828"/>
      <path style="fill:#844414;" d="M35.31,370.759c-5.297,0-8.828-3.531-8.828-8.828c0-15.007,11.476-26.483,26.483-26.483
        c5.297,0,8.828,3.531,8.828,8.828c0,5.297-3.531,8.828-8.828,8.828s-8.828,3.531-8.828,8.828
        C44.138,367.228,40.607,370.759,35.31,370.759"/>
    </g>
    <path style="fill:#CE8D5B;" d="M141.241,370.759c-5.297,0-8.828-3.531-8.828-8.828c0-15.007,11.476-26.483,26.483-26.483
      c5.297,0,8.828,3.531,8.828,8.828c0,5.297-3.531,8.828-8.828,8.828s-8.828,3.531-8.828,8.828
      C150.069,367.228,146.538,370.759,141.241,370.759"/>
    <path style="fill:#9E5A23;" d="M353.103,97.103H158.897c29.131,0,52.966,23.834,52.966,52.966s-23.834,52.966-52.966,52.966h194.207
      c29.131,0,52.966-23.834,52.966-52.966S382.234,97.103,353.103,97.103"/>
    <path style="fill:#844414;" d="M397.241,203.034H203.034C232.166,203.034,256,226.869,256,256c0,29.131-23.834,52.966-52.966,52.966
      h194.207c29.131,0,52.966-23.835,52.966-52.966S426.372,203.034,397.241,203.034"/>
    <g>
      <path style="fill:#9E5A23;" d="M459.034,308.966H264.828c29.131,0,52.966,23.835,52.966,52.966
        c0,29.131-23.834,52.966-52.966,52.966h194.207c29.131,0,52.966-23.834,52.966-52.966C512,332.8,488.165,308.966,459.034,308.966"
        />
      <path style="fill:#9E5A23;" d="M105.931,361.931c0,29.131-23.834,52.966-52.966,52.966h105.931
        C129.766,414.897,105.931,391.062,105.931,361.931"/>
      <path style="fill:#9E5A23;" d="M211.862,361.931c0,29.131-23.834,52.966-52.966,52.966h105.931
        C235.697,414.897,211.862,391.062,211.862,361.931"/>
    </g>
    <g>
      <path style="fill:#844414;" d="M264.828,141.241h-55.614c-5.297,0-8.828-3.531-8.828-8.828c0-5.297,3.531-8.828,8.828-8.828h55.614
        c5.297,0,8.828,3.531,8.828,8.828C273.655,137.71,270.124,141.241,264.828,141.241"/>
      <path style="fill:#844414;" d="M247.172,176.552h-37.959c-5.297,0-8.828-3.531-8.828-8.828s3.531-8.828,8.828-8.828h37.959
        c5.297,0,8.828,3.531,8.828,8.828S252.469,176.552,247.172,176.552"/>
      <path style="fill:#844414;" d="M344.276,176.552H291.31c-5.297,0-8.828-3.531-8.828-8.828s3.531-8.828,8.828-8.828h52.966
        c5.297,0,8.828,3.531,8.828,8.828S349.572,176.552,344.276,176.552"/>
      <path style="fill:#844414;" d="M388.414,141.241h-44.138c-5.297,0-8.828-3.531-8.828-8.828c0-5.297,3.531-8.828,8.828-8.828h44.138
        c5.297,0,8.828,3.531,8.828,8.828C397.241,137.71,393.71,141.241,388.414,141.241"/>
      <path style="fill:#844414;" d="M308.966,141.241h-8.828c-5.297,0-8.828-3.531-8.828-8.828c0-5.297,3.531-8.828,8.828-8.828h8.828
        c5.297,0,8.828,3.531,8.828,8.828C317.793,137.71,314.262,141.241,308.966,141.241"/>
      <path style="fill:#844414;" d="M388.414,176.552h-8.828c-5.297,0-8.828-3.531-8.828-8.828s3.531-8.828,8.828-8.828h8.828
        c5.297,0,8.828,3.531,8.828,8.828S393.71,176.552,388.414,176.552"/>
    </g>
    <g>
      <path style="fill:#9E5A23;" d="M308.966,247.172h-55.614c-5.297,0-8.828-3.531-8.828-8.828s3.531-8.828,8.828-8.828h55.614
        c5.297,0,8.828,3.531,8.828,8.828S314.262,247.172,308.966,247.172"/>
      <path style="fill:#9E5A23;" d="M291.31,282.483h-37.959c-5.297,0-8.828-3.531-8.828-8.828c0-5.297,3.531-8.828,8.828-8.828h37.959
        c5.297,0,8.828,3.531,8.828,8.828C300.138,278.952,296.607,282.483,291.31,282.483"/>
      <path style="fill:#9E5A23;" d="M388.414,282.483h-52.966c-5.297,0-8.828-3.531-8.828-8.828c0-5.297,3.531-8.828,8.828-8.828h52.966
        c5.297,0,8.828,3.531,8.828,8.828C397.241,278.952,393.71,282.483,388.414,282.483"/>
      <path style="fill:#9E5A23;" d="M432.552,247.172h-44.138c-5.297,0-8.828-3.531-8.828-8.828s3.531-8.828,8.828-8.828h44.138
        c5.297,0,8.828,3.531,8.828,8.828S437.848,247.172,432.552,247.172"/>
      <path style="fill:#9E5A23;" d="M353.103,247.172h-8.828c-5.297,0-8.828-3.531-8.828-8.828s3.531-8.828,8.828-8.828h8.828
        c5.297,0,8.828,3.531,8.828,8.828S358.4,247.172,353.103,247.172"/>
      <path style="fill:#9E5A23;" d="M432.552,282.483h-8.828c-5.297,0-8.828-3.531-8.828-8.828c0-5.297,3.531-8.828,8.828-8.828h8.828
        c5.297,0,8.828,3.531,8.828,8.828C441.379,278.952,437.848,282.483,432.552,282.483"/>
    </g>
    <g>
      <path style="fill:#844414;" d="M370.759,353.103h-55.614c-5.297,0-8.828-3.531-8.828-8.828c0-5.297,3.531-8.828,8.828-8.828h55.614
        c5.297,0,8.828,3.531,8.828,8.828C379.586,349.572,376.055,353.103,370.759,353.103"/>
      <path style="fill:#844414;" d="M353.103,388.414h-37.959c-5.297,0-8.828-3.531-8.828-8.828c0-5.297,3.531-8.828,8.828-8.828h37.959
        c5.297,0,8.828,3.531,8.828,8.828C361.931,384.883,358.4,388.414,353.103,388.414"/>
      <path style="fill:#844414;" d="M450.207,388.414h-52.966c-5.297,0-8.828-3.531-8.828-8.828c0-5.297,3.531-8.828,8.828-8.828h52.966
        c5.297,0,8.828,3.531,8.828,8.828C459.034,384.883,455.503,388.414,450.207,388.414"/>
      <path style="fill:#844414;" d="M494.345,353.103h-44.138c-5.297,0-8.828-3.531-8.828-8.828c0-5.297,3.531-8.828,8.828-8.828h44.138
        c5.297,0,8.828,3.531,8.828,8.828C503.172,349.572,499.641,353.103,494.345,353.103"/>
      <path style="fill:#844414;" d="M414.897,353.103h-8.828c-5.297,0-8.828-3.531-8.828-8.828c0-5.297,3.531-8.828,8.828-8.828h8.828
        c5.297,0,8.828,3.531,8.828,8.828C423.724,349.572,420.193,353.103,414.897,353.103"/>
      <path style="fill:#844414;" d="M494.345,388.414h-8.828c-5.297,0-8.828-3.531-8.828-8.828c0-5.297,3.531-8.828,8.828-8.828h8.828
        c5.297,0,8.828,3.531,8.828,8.828C503.172,384.883,499.641,388.414,494.345,388.414"/>
    </g>
    <path style="fill:#CE8D5B;" d="M211.862,150.069c0-29.131-23.834-52.966-52.966-52.966s-52.966,23.834-52.966,52.966
      s23.834,52.966,52.966,52.966S211.862,179.2,211.862,150.069"/>
    <path style="fill:#844414;" d="M141.241,158.897c-5.297,0-8.828-3.531-8.828-8.828c0-15.007,11.476-26.483,26.483-26.483
      c5.297,0,8.828,3.531,8.828,8.828c0,5.297-3.531,8.828-8.828,8.828s-8.828,3.531-8.828,8.828
      C150.069,155.366,146.538,158.897,141.241,158.897"/>
    <g>
      <path style="fill:#CE8D5B;" d="M256,256c0-29.131-23.834-52.966-52.966-52.966S150.069,226.869,150.069,256
        c0,29.131,23.834,52.966,52.966,52.966S256,285.131,256,256"/>
      <path style="fill:#CE8D5B;" d="M317.793,361.931c0-29.131-23.834-52.966-52.966-52.966c-29.131,0-52.966,23.835-52.966,52.966
        c0,29.131,23.835,52.966,52.966,52.966C293.959,414.897,317.793,391.062,317.793,361.931"/>
    </g>
    <path style="fill:#9E5A23;" d="M185.379,264.828c-5.297,0-8.828-3.531-8.828-8.828c0-15.007,11.476-26.483,26.483-26.483
      c5.297,0,8.828,3.531,8.828,8.828s-3.531,8.828-8.828,8.828s-8.828,3.531-8.828,8.828
      C194.207,261.297,190.676,264.828,185.379,264.828"/>
    <path style="fill:#844414;" d="M247.172,370.759c-5.297,0-8.828-3.531-8.828-8.828c0-15.007,11.476-26.483,26.483-26.483
      c5.297,0,8.828,3.531,8.828,8.828c0,5.297-3.531,8.828-8.828,8.828c-5.297,0-8.828,3.531-8.828,8.828
      C256,367.228,252.469,370.759,247.172,370.759"/>
  </symbol>
</svg>